<mxfile host="app.diagrams.net" modified="2023-08-07T02:05:55.723Z" agent="Mozilla/5.0 (Windows NT 10.0; Win64; x64) AppleWebKit/537.36 (KHTML, like Gecko) Chrome/93.0.4577.63 Safari/537.36 Edg/93.0.961.47" version="21.6.2" etag="fKMjiYNFvSVBIWGuh0Gv" type="github">
  <diagram name="第 1 页" id="fJuTQkHSfpZBnW-PJsP8">
    <mxGraphModel>
      <root>
        <mxCell id="0" />
        <mxCell id="1" parent="0" />
      </root>
    </mxGraphModel>
  </diagram>
</mxfile>
